<svg width="1024" height="1024" xmlns="http://www.w3.org/2000/svg" preserveAspectRatio="xMidYMid meet" version="1.0">
 <metadata>Created by potrace 1.15, written by Peter Selinger 2001-2017</metadata>

 <g>
  <title>Layer 1</title>
  <ellipse ry="405" rx="405" id="svg_5" cy="512" cx="504" stroke="#000" fill="#fff"/>
  <g id="svg_1" fill="#000000" transform="translate(0.000000,1024.000000) scale(0.100000,-0.100000)">
   <path id="svg_2" d="m4720,9174c-19,-2 -80,-9 -135,-14c-782,-82 -1552,-413 -2180,-939c-116,-96 -380,-360 -476,-476c-520,-621 -824,-1318 -936,-2143c-25,-183 -25,-801 0,-984c112,-825 416,-1522 936,-2143c96,-116 360,-380 476,-476c621,-520 1318,-824 2143,-936c183,-25 801,-25 984,0c825,112 1522,416 2143,936c116,96 380,360 476,476c520,621 824,1318 936,2143c25,183 25,801 0,984c-112,825 -416,1522 -936,2143c-96,116 -360,380 -476,476c-619,518 -1323,826 -2137,935c-88,12 -216,17 -453,19c-181,2 -346,1 -365,-1zm50,-432c0,-117 8,-371 19,-612c6,-118 13,-287 16,-375c11,-312 44,-1131 49,-1204l5,-73l-45,5c-25,2 -48,8 -52,11c-3,4 -10,73 -14,154c-18,356 -77,1737 -83,1939l-6,222l28,4c15,2 40,5 56,6l27,1l0,-78zm957,24c1,-1 4,-303 7,-671c4,-369 9,-700 12,-736c3,-37 2,-69 -3,-71c-4,-3 -29,-3 -54,0l-46,4l-7,291c-4,161 -9,339 -11,397c-8,177 -15,778 -9,793c4,11 15,12 57,5c29,-6 53,-11 54,-12zm-2313,-335c6,-9 53,-560 111,-1281c19,-245 38,-469 41,-497c5,-51 4,-53 -28,-73c-18,-11 -36,-20 -40,-20c-3,0 -9,26 -12,58c-14,130 -68,758 -106,1212c-22,267 -42,506 -45,532c-5,44 -4,48 22,62c32,17 50,20 57,7zm2753,-201c28,-10 31,-15 37,-72c10,-100 7,-578 -4,-578c-29,0 -89,34 -94,53c-3,12 -6,154 -6,315c0,325 -4,306 67,282zm-1847,-47c0,-27 7,-176 15,-333c8,-157 17,-356 21,-442c7,-174 9,-168 -58,-172c-33,-1 -33,-1 -35,49c-2,28 -7,115 -13,195c-5,80 -17,253 -25,385c-8,132 -18,263 -21,291c-6,50 -5,52 22,62c16,6 44,11 62,11c32,1 32,1 32,-46zm2774,-137l34,-14l7,-134c3,-73 5,-231 3,-350l-3,-218l-42,21l-42,20l-3,332c-2,183 -1,338 1,345c4,15 4,15 45,-2zm-1826,-131c6,-6 20,-491 21,-737l1,-148l-47,7c-27,3 -49,6 -50,7c-3,2 -33,743 -33,815l0,74l51,-6c29,-4 54,-9 57,-12zm2303,-71c12,-14 14,-233 17,-1441c3,-1387 3,-1423 -15,-1423c-11,0 -26,6 -35,13c-15,11 -17,132 -22,1317c-4,718 -9,1370 -12,1449l-6,144l29,-21c17,-12 36,-29 44,-38zm-897,-205c5,-4 10,-61 11,-126c5,-221 6,-1576 1,-1580c-2,-2 -20,3 -40,11l-36,15l0,851l0,850l28,-6c15,-4 31,-10 36,-15zm-2760,-56c3,-27 8,-88 11,-138c3,-49 10,-161 16,-248c12,-176 10,-187 -47,-187c-30,0 -34,3 -38,33c-10,59 -45,551 -40,559c5,7 57,25 81,27c6,1 14,-20 17,-46zm-1654,-255c11,-106 33,-328 49,-493c17,-165 31,-305 31,-311c0,-12 -77,-50 -85,-42c-5,5 -105,890 -105,930c0,24 77,125 87,114c3,-2 13,-91 23,-198zm3921,-105l29,-17l1,-216c1,-118 3,-250 3,-293c2,-90 -9,-105 -63,-86l-31,11l0,86c0,48 -3,187 -7,310l-6,222l23,0c12,0 35,-8 51,-17zm-3482,-388c18,-192 47,-516 66,-720l34,-370l-39,-39l-38,-39l-7,79c-4,44 -24,248 -45,454c-21,206 -51,505 -66,664l-28,288l39,36c35,33 39,34 46,16c4,-10 21,-176 38,-369zm-749,-121c22,-197 80,-721 130,-1164c50,-443 97,-870 106,-950c8,-80 22,-201 30,-270c14,-117 14,-125 -2,-137c-24,-18 -34,-16 -34,5c0,9 -9,85 -20,167c-18,137 -48,369 -115,890c-14,105 -41,314 -60,465c-20,151 -49,376 -65,500c-16,124 -43,336 -60,473c-18,136 -29,257 -26,270c7,27 66,121 72,115c2,-3 22,-166 44,-364zm-306,-431c15,-120 43,-339 62,-488c19,-148 43,-333 54,-410l19,-140l-21,-18c-12,-10 -24,-14 -28,-10c-4,4 -12,44 -18,88c-6,44 -43,301 -83,570l-71,490l23,68c12,37 25,67 28,67c4,0 19,-98 35,-217zm5490,131c14,-14 16,-76 16,-535l0,-519l-28,0c-61,0 -60,-15 -64,553l-3,517l32,0c17,0 39,-7 47,-16zm-2189,-179c226,-34 423,-97 618,-197c126,-65 186,-110 326,-244c208,-199 336,-373 456,-619c175,-358 243,-675 329,-1525c39,-381 90,-1072 101,-1355c3,-82 10,-217 16,-300c11,-176 24,-152 -131,-227c-215,-104 -422,-176 -695,-243c-334,-82 -550,-108 -880,-109l-240,-1l2,115c0,63 6,210 12,325c30,557 24,1260 -15,1650c-22,224 -65,496 -89,556c-5,13 18,24 117,58c181,63 338,142 362,181c43,74 -34,180 -132,180c-17,0 -68,-18 -115,-39c-224,-103 -673,-224 -932,-251c-179,-19 -457,-8 -650,27c-105,19 -293,90 -450,171c-181,94 -292,219 -325,367c-18,80 -13,240 10,330c25,99 95,243 159,327c285,375 873,700 1476,814c192,36 464,40 670,9zm3085,-31c36,-15 40,-19 40,-53c2,-273 -4,-897 -9,-923c-1,-9 -53,-10 -75,-2c-14,5 -16,59 -16,500c0,316 4,494 10,494c5,0 28,-7 50,-16zm437,-549l36,-15l-7,-828c-8,-1055 -9,-1086 -47,-1177c-62,-149 -59,-179 -53,475c2,327 7,658 9,735c2,77 4,294 5,483c0,228 3,342 10,342c6,0 27,-7 47,-15zm-6014,-249c6,-81 4,-89 -25,-153l-32,-68l-12,100c-19,160 -19,167 19,191c17,12 35,20 38,18c3,-2 9,-42 12,-88zm-618,-603c9,-82 79,-626 115,-893c54,-413 58,-472 34,-447c-3,3 -26,142 -50,309c-156,1078 -155,1071 -142,1079c27,18 36,8 43,-48zm720,-458c6,-25 35,-296 35,-329c0,-28 -36,-54 -52,-38c-5,5 -18,90 -28,188c-11,99 -22,202 -25,229l-6,50l35,-40c20,-22 38,-49 41,-60zm807,-377c11,-10 18,-50 27,-158c15,-195 17,-180 -24,-180c-42,0 -41,-3 -55,173c-14,179 -14,177 13,177c13,0 30,-6 39,-12zm792,-15c2,-10 7,-70 11,-133c3,-63 12,-205 20,-315c28,-404 29,-455 12,-455c-19,0 -21,15 -43,300c-8,118 -23,304 -33,413c-9,109 -15,200 -12,202c11,12 40,3 45,-12zm-1880,-192c6,-9 44,-329 91,-766c14,-132 28,-259 31,-283l5,-43l-25,16c-19,13 -26,26 -26,49c0,63 -43,478 -76,732c-19,144 -34,271 -34,283c0,21 24,29 34,12zm5771,-418l-7,-418l-25,-37c-57,-84 -54,-100 -51,368l2,429l37,38c20,20 40,37 44,37c3,0 3,-188 0,-417zm-925,-663c5,-581 4,-626 -12,-644c-10,-11 -19,-18 -22,-15c-7,8 -17,1275 -9,1282c4,4 14,6 23,5c13,-3 16,-74 20,-628zm-3266,398c7,-62 32,-359 42,-499c6,-94 6,-97 -16,-104c-12,-4 -26,-3 -30,2c-7,7 -29,229 -56,571l-7,82l31,0c29,0 31,-2 36,-52zm-786,-350c7,-7 12,-32 12,-57c0,-26 12,-161 25,-301c38,-383 41,-435 24,-425c-26,15 -49,38 -44,44c2,4 -2,54 -10,111c-7,58 -16,152 -20,210c-4,58 -13,164 -21,235c-19,175 -18,195 4,195c10,0 23,-5 30,-12zm473,-673c3,-22 9,-104 13,-182c7,-150 4,-161 -37,-130c-12,9 -20,47 -32,161c-21,206 -22,198 17,194c29,-3 33,-7 39,-43z"/>
   <path id="svg_3" d="m3184,5756c-104,-45 -112,-186 -14,-236c71,-36 143,-19 180,43c70,114 -44,246 -166,193z"/>
   <path id="svg_4" d="m3862,5660c-96,-59 -96,-201 0,-260c95,-57 218,18 218,132c0,110 -126,184 -218,128z"/>
  </g>
 </g>
</svg>