<svg width="89.60212224" height="89.60212224" xmlns="http://www.w3.org/2000/svg" version="1.1">

 <g>
  <title>Layer 1</title>
  <path fill="#326de6" id="path10349" d="m79.79744,18.8c-0.5,-1.6 -1.7,-2.9 -3.2,-3.7l-30.5,-14.6c-0.8,-0.4 -1.7,-0.5 -2.5,-0.5c-0.8,0 -1.7,0 -2.5,0.2l-30.5,14.7c-1.5,0.7 -2.6,2 -3,3.7l-7.5,32.9c-0.3,1.7 0.1,3.4 1.1,4.8l21.1,26.1c1.2,1.2 2.9,2 4.6,2.1l33.59999,0c1.8,0.2 3.5,-0.6 4.6,-2.1l21.10001,-26.1c1,-1.4 1.39999,-3.1 1.2,-4.8l-7.6,-32.7l0.00001,0z"/>
  <path fill="#ffffff" id="path10351" d="m75.09743,50.2l0,0c-0.1,0 -0.2,0 -0.2,-0.1c0,-0.1 -0.2,-0.1 -0.4,-0.1c-0.4,-0.1 -0.8,-0.1 -1.2,-0.1c-0.2,0 -0.4,0 -0.6,-0.1l-0.10001,0c-1.1,-0.1 -2.3,-0.3 -3.39999,-0.6c-0.3,-0.1 -0.60001,-0.4 -0.7,-0.7c0.1,0 0,0 0,0l0,0l-0.8,-0.2c0.39999,-2.9 0.2,-5.9 -0.4,-8.8c-0.7,-2.9 -1.9,-5.7 -3.5,-8.2l0.6,-0.6l0,0l0,-0.1c0,-0.3 0.1,-0.7 0.3,-0.9c0.89999,-0.8 1.8,-1.4 2.8,-2l0,0c0.2,-0.1 0.4,-0.2 0.6,-0.3c0.4,-0.2 0.7,-0.4 1.10001,-0.6c0.1,-0.1 0.2,-0.1 0.3,-0.2c0.1,-0.1 0,-0.1 0,-0.2l0,0c0.9,-0.7 1.1,-1.9 0.4,-2.8c-0.3,-0.4 -0.9,-0.7 -1.4,-0.7c-0.5,0 -1,0.2 -1.4,0.5l0,0l-0.1,0.1c-0.1,0.1 -0.2,0.2 -0.3,0.2c-0.3,0.3 -0.60001,0.6 -0.8,0.9c-0.1,0.2 -0.3,0.3 -0.4,0.4l0,0c-0.7,0.8 -1.6,1.6 -2.5,2.2c-0.2,0.1 -0.4,0.2 -0.6,0.2c-0.1,0 -0.3,0 -0.4,-0.1l-0.1,0l-0.8,0.5c-0.8,-0.8 -1.7,-1.6 -2.5,-2.4c-3.7,-2.9 -8.3,-4.7 -13,-5.2l-0.1,-0.8l0,0l0,0.1c-0.3,-0.2 -0.4,-0.5 -0.5,-0.8c0,-1.1 0,-2.2 0.2,-3.4l0,-0.1c0,-0.2 0.1,-0.4 0.1,-0.6c0.1,-0.4 0.1,-0.8 0.2,-1.2l0,-0.6l0,0c0.1,-1 -0.7,-2 -1.7,-2.1c-0.6,-0.1 -1.2,0.2 -1.7,0.7c-0.4,0.4 -0.6,0.9 -0.6,1.4l0,0l0,0.5c0,0.4 0.1,0.8 0.2,1.2c0.1,0.2 0.1,0.4 0.1,0.6l0,0.1c0.2,1.1 0.2,2.2 0.2,3.4c-0.1,0.3 -0.2,0.6 -0.5,0.8l0,0.2l0,0l-0.1,0.8c-1.1,0.1 -2.2,0.3 -3.4,0.5c-4.7,1 -9,3.5 -12.3,7l-0.6,-0.4l-0.1,0c-0.1,0 -0.2,0.1 -0.4,0.1c-0.2,0 -0.4,-0.1 -0.6,-0.2c-0.9,-0.7 -1.8,-1.5 -2.5,-2.3l0,0c-0.1,-0.2 -0.3,-0.3 -0.4,-0.4c-0.3,-0.3 -0.5,-0.6 -0.8,-0.9c-0.1,-0.1 -0.2,-0.1 -0.3,-0.2c-0.1,-0.1 -0.1,-0.1 -0.1,-0.1l0,0c-0.4,-0.3 -0.9,-0.5 -1.4,-0.5c-0.6,0 -1.1,0.2 -1.4,0.7c-0.6,0.9 -0.4,2.1 0.4,2.8l0,0c0.1,0 0.1,0.1 0.1,0.1c0,0 0.2,0.2 0.3,0.2c0.3,0.2 0.7,0.4 1.1,0.6c0.2,0.1 0.4,0.2 0.6,0.3l0,0c1,0.6 2,1.2 2.8,2c0.2,0.2 0.4,0.6 0.3,0.9l0,-0.1l0,0l0.6,0.6c-0.1,0.2 -0.2,0.3 -0.3,0.5c-3.1,4.9 -4.4,10.7 -3.5,16.4l-0.8,0.2l0,0c0,0.1 -0.1,0.1 -0.1,0.1c-0.1,0.3 -0.4,0.5 -0.7,0.7c-1.1,0.3 -2.2,0.5 -3.4,0.6l0,0c-0.2,0 -0.4,0 -0.6,0.1c-0.4,0 -0.8,0.1 -1.2,0.1c-0.1,0 -0.2,0.1 -0.4,0.1c-0.1,0 -0.1,0 -0.2,0.1l0,0c-1.1,0.2 -1.8,1.2 -1.6,2.3c0,0 0,0 0,0c0.2,0.9 1.1,1.5 2,1.4c0.2,0 0.3,0 0.5,-0.1l0,0c0.1,0 0.1,0 0.1,-0.1c0,-0.1 0.3,0 0.4,0c0.4,-0.1 0.8,-0.3 1.1,-0.4c0.2,-0.1 0.4,-0.2 0.6,-0.2l0.1,0c1.1,-0.4 2.1,-0.7 3.3,-0.9l0.1,0c0.3,0 0.6,0.1 0.8,0.3c0.1,0 0.1,0.1 0.1,0.1l0,0l0.9,-0.1c1.5,4.6 4.3,8.7 8.2,11.7c0.9,0.7 1.7,1.3 2.7,1.8l-0.5,0.7l0,0c0,0.1 0.1,0.1 0.1,0.1c0.2,0.3 0.2,0.7 0.1,1c-0.4,1 -1,2 -1.6,2.9l0,0.1c-0.1,0.2 -0.2,0.3 -0.4,0.5c-0.2,0.2 -0.4,0.6 -0.7,1c-0.1,0.1 -0.1,0.2 -0.2,0.3c0,0 0,0.1 -0.1,0.1l0,0c-0.5,1 -0.1,2.2 0.8,2.7c0.2,0.10001 0.5,0.2 0.7,0.2c0.8,0 1.5,-0.5 1.9,-1.2l0,0c0,0 0,-0.1 0.1,-0.1c0,-0.1 0.1,-0.2 0.2,-0.3c0.1,-0.4 0.3,-0.7 0.4,-1.10001l0.2,-0.6l0,0c0.3,-1.1 0.8,-2.1 1.3,-3.1c0.2,-0.3 0.5,-0.5 0.8,-0.6c0.1,0 0.1,0 0.1,-0.1l0,0l0.4,-0.8c2.8,1.1 5.7,1.6 8.7,1.6c1.8,0 3.6,-0.2 5.4,-0.7c1.1,-0.2 2.2,-0.6 3.2,-0.9l0.4,0.7l0,0c0.1,0 0.1,0 0.1,0.10001c0.3,0.1 0.6,0.3 0.8,0.6c0.5,1 1,2 1.3,3.1l0,0.1l0.2,0.6c0.1,0.4 0.2,0.8 0.4,1.10001c0.1,0.1 0.1,0.2 0.2,0.3c0,0 0,0.1 0.1,0.1l0,0c0.4,0.7 1.1,1.2 1.9,1.2c0.3,0 0.5,-0.1 0.8,-0.2c0.4,-0.2 0.8,-0.6 0.9,-1.1c0.1,-0.5 0.1,-1 -0.1,-1.5l0,0c0,-0.1 -0.1,-0.1 -0.1,-0.1c0,-0.1 -0.1,-0.2 -0.2,-0.3c-0.2,-0.39999 -0.4,-0.7 -0.7,-1c-0.1,-0.2 -0.2,-0.3 -0.4,-0.5l0,-0.2c-0.7,-0.9 -1.2,-1.9 -1.6,-2.9c-0.1,-0.3 -0.1,-0.7 0.1,-1c0,-0.1 0.1,-0.1 0.1,-0.1l0,0l-0.3,-0.8c5.1,-3.1 9,-7.9 10.8,-13.6l0.8,0.1l0,0c0.1,0 0.1,-0.1 0.1,-0.1c0.2,-0.2 0.5,-0.3 0.8,-0.3l0.1,0c1.1,0.2 2.2,0.5 3.2,0.9l0.1,0c0.2,0.1 0.4,0.2 0.60001,0.2c0.39999,0.2 0.7,0.4 1.1,0.5c0.1,0 0.2,0.1 0.4,0.1c0.1,0 0.1,0 0.2,0.1l0,0c0.2,0.1 0.3,0.1 0.5,0.1c0.9,0 1.7,-0.6 2,-1.4c-0.1,-1.1 -0.9,-1.9 -1.8,-2.1zm-28.89999,-3.1l-2.7,1.3l-2.7,-1.3l-0.7,-2.9l1.9,-2.4l3,0l1.9,2.4l-0.7,2.9zm16.29999,-6.5c0.5,2.1 0.6,4.2 0.4,6.3l-9.5,-2.7l0,0c-0.9,-0.2 -1.4,-1.1 -1.2,-2c0.1,-0.3 0.2,-0.5 0.4,-0.7l7.5,-6.8c1.1,1.8 1.9,3.8 2.4,5.9zm-5.4,-9.6l-8.2,5.8c-0.7,0.4 -1.7,0.3 -2.2,-0.4c-0.2,-0.2 -0.3,-0.4 -0.3,-0.7l-0.6,-10.1c4.4,0.5 8.3,2.4 11.3,5.4l0,0zm-18.1,-5.1l2,-0.4l-0.5,10l0,0c0,0.9 -0.8,1.6 -1.7,1.6c-0.3,0 -0.5,-0.1 -0.8,-0.2l-8.3,-5.9c2.6,-2.5 5.8,-4.3 9.3,-5.1zm-12.2,8.8l7.4,6.6l0,0c0.7,0.6 0.8,1.6 0.2,2.3c-0.2,0.3 -0.4,0.4 -0.8,0.5l-9.7,2.8c-0.3,-4.2 0.7,-8.5 2.9,-12.2zm-1.7,16.9l9.9,-1.7c0.8,0 1.6,0.5 1.7,1.3c0.1,0.3 0.1,0.7 -0.1,1l0,0l-3.8,9.2c-3.5,-2.3 -6.3,-5.8 -7.7,-9.8zm22.70001,12.4c-1.4,0.3 -2.8,0.5 -4.30001,0.5c-2.1,0 -4.3,-0.4 -6.3,-1l4.9,-8.9c0.5,-0.6 1.3,-0.8 2,-0.4c0.3,0.2 0.5,0.4 0.8,0.7l0,0l4.8,8.7c-0.6,0.1 -1.2,0.2 -1.9,0.4l0.00001,0zm12.19999,-8.7c-1.5,2.4 -3.6,4.5 -6,6l-3.9,-9.4c-0.2,-0.8 0.2,-1.6 0.9,-1.9c0.3,-0.1 0.6,-0.2 0.9,-0.2l10,1.7c-0.5,1.4 -1.1,2.7 -1.9,3.8z"/>
 </g>
</svg>